<?xml version="1.0" encoding="UTF-8"?>
<svg xmlns="http://www.w3.org/2000/svg" width="397" height="85">
   <defs>
      <style type="text/css">
    @namespace "http://www.w3.org/2000/svg";
    .line                 {fill: none; stroke: #132E1A; stroke-width: 1;}
    .bold-line            {stroke: #060E08; shape-rendering: crispEdges; stroke-width: 2;}
    .thin-line            {stroke: #0E060C; shape-rendering: crispEdges}
    .filled               {fill: #132E1A; stroke: none;}
    text.terminal         {font-family: Verdana, Sans-serif;
                            font-size: 12px;
                            fill: #060E08;
                            font-weight: bold;
                          }
    text.nonterminal      {font-family: Verdana, Sans-serif;
                            font-size: 12px;
                            fill: #06080E;
                            font-weight: normal;
                          }
    text.regexp           {font-family: Verdana, Sans-serif;
                            font-size: 12px;
                            fill: #0E060C;
                            font-weight: normal;
                          }
    rect, circle, polygon {fill: #132E1A; stroke: #132E1A;}
    rect.terminal         {fill: #C6E7CE; stroke: #132E1A; stroke-width: 1;}
    rect.nonterminal      {fill: #C6CEE7; stroke: #132E1A; stroke-width: 1;}
    rect.text             {fill: none; stroke: none;}
    polygon.regexp        {fill: #E7C6DF; stroke: #132E1A; stroke-width: 1;}
  </style>
   </defs>
   <polygon points="9 33 1 29 1 37"/>
   <polygon points="17 33 9 29 9 37"/>
   <rect x="31" y="19" width="36" height="32" rx="10"/>
   <rect x="29"
         y="17"
         width="36"
         height="32"
         class="terminal"
         rx="10"/>
   <text class="terminal" x="39" y="37">//</text>
   <polygon points="127 35 134 19 196 19 203 35 196 51 134 51"/>
   <polygon points="125 33 132 17 194 17 201 33 194 49 132 49" class="regexp"/>
   <text class="regexp" x="140" y="37">[^#xA]</text>
   <polygon points="283 67 290 51 342 51 349 67 342 83 290 83"/>
   <polygon points="281 65 288 49 340 49 347 65 340 81 288 81" class="regexp"/>
   <text class="regexp" x="296" y="69">[#xA]</text>
   <path class="line"
         d="m17 33 h2 m0 0 h10 m36 0 h10 m40 0 h10 m76 0 h10 m-116 0 l20 0 m-1 0 q-9 0 -9 -10 l0 -12 q0 -10 10 -10 m96 32 l20 0 m-20 0 q10 0 10 -10 l0 -12 q0 -10 -10 -10 m-96 0 h10 m0 0 h86 m-136 32 h20 m136 0 h20 m-176 0 q10 0 10 10 m156 0 q0 -10 10 -10 m-166 10 v14 m156 0 v-14 m-156 14 q0 10 10 10 m136 0 q10 0 10 -10 m-146 10 h10 m0 0 h126 m40 -34 h10 m0 0 h76 m-106 0 h20 m86 0 h20 m-126 0 q10 0 10 10 m106 0 q0 -10 10 -10 m-116 10 v12 m106 0 v-12 m-106 12 q0 10 10 10 m86 0 q10 0 10 -10 m-96 10 h10 m66 0 h10 m23 -32 h-3"/>
   <polygon points="387 33 395 29 395 37"/>
   <polygon points="387 33 379 29 379 37"/>
</svg>
